<?xml version="1.0" standalone="no"?>
<!DOCTYPE svg PUBLIC "-//W3C//DTD SVG 20010904//EN" "http://www.w3.org/TR/2001/REC-SVG-20010904/DTD/svg10.dtd">
<svg version="1.0"
     xmlns="http://www.w3.org/2000/svg"
     width="250.000000pt"
     height="250.000000pt"
     viewBox="0 0 250.000000 250.000000"
     preserveAspectRatio="xMidYMid meet">
    <g transform="translate(0.000000,250.000000) scale(0.100000,-0.100000)"
       fill="currentColor"
       stroke="none">
        <path d="M1080 2483 c-278 -45 -497 -153 -692 -342 -198 -190 -318 -421 -364&#xA;-694 -23 -138 -15 -353 19 -487 60 -236 161 -415 332 -585 179 -179 380 -287&#xA;635 -342 117 -25 361 -25 480 0 184 39 359 118 502 224 l78 58 -118 117 c-64&#xA;65 -120 118 -124 118 -4 0 -35 -20 -70 -44 -144 -99 -287 -146 -473 -153 -198&#xA;-8 -365 36 -521 138 -340 222 -490 617 -384 1007 51 187 192 385 351 493 326&#xA;221 722 219 1042 -4 l58 -41 119 119 120 119 -28 24 c-159 134 -368 229 -586&#xA;267 -81 14 -310 19 -376 8z" />
        <path d="M2066 1951 l-120 -120 43 -61 c52 -74 113 -204 136 -290 25 -95 31&#xA;-306 11 -403 -23 -112 -71 -228 -132 -320 -30 -44 -54 -83 -54 -86 0 -3 52&#xA;-58 117 -123 l116 -117 30 37 c291 364 358 842 177 1274 -32 80 -121 227 -175&#xA;292 l-30 37 -119 -120z" />
        <path d="M1145 2044 c-16 -3 -65 -14 -107 -26 l-78 -20 0 -172 0 -171 145&#xA;-145 145 -145 150 150 150 150 -2 165 -3 165 -80 23 c-79 23 -251 37 -320 26z" />
        <path d="M500 1525 c-58 -153 -60 -359 -5 -528 l12 -39 169 1 169 2 145 144&#xA;145 145 -150 150 -150 150 -163 0 -162 0 -10 -25z" />
        <path d="M1515 1400 l-150 -150 147 -147 148 -148 167 5 168 5 13 40 c53 156&#xA;49 373 -9 518 l-11 27 -162 0 -161 0 -150 -150z" />
        <path d="M1102 987 l-142 -142 0 -167 c0 -193 -9 -177 115 -203 102 -22 248&#xA;-22 348 -1 137 30 127 13 127 200 l0 161 -148 148 c-81 81 -149 147 -152 147&#xA;-3 0 -69 -64 -148 -143z" />
    </g>
</svg>