<?xml version="1.0" standalone="no"?>
<!DOCTYPE svg PUBLIC "-//W3C//DTD SVG 20010904//EN" "http://www.w3.org/TR/2001/REC-SVG-20010904/DTD/svg10.dtd">
<svg version="1.0"
     xmlns="http://www.w3.org/2000/svg"
     width="320.000000pt"
     height="320.000000pt"
     viewBox="0 0 320.000000 320.000000"
     preserveAspectRatio="xMidYMid meet">
    <g transform="translate(0.000000,320.000000) scale(0.100000,-0.100000)"
       fill="currentColor"
       stroke="none">
        <path d="M1292 3025 c-581 -66 -1006 -270 -1113 -533 -12 -29 -20 -54 -18 -56&#xA;2 -2 182 -37 399 -78 365 -68 399 -72 445 -62 28 7 77 13 109 13 57 1 67 6&#xA;247 112 185 109 187 111 198 153 20 82 135 160 296 202 101 27 398 27 505 0&#xA;141 -35 250 -96 290 -161 27 -43 26 -108 -2 -153 -59 -95 -291 -182 -490 -182&#xA;-59 0 -95 -10 -290 -80 -285 -103 -278 -100 -278 -116 0 -26 -70 -92 -121&#xA;-114 -86 -36 -201 -53 -319 -47 -163 10 -273 46 -335 112 -30 31 -38 33 -304&#xA;84 -150 29 -278 50 -284 48 -15 -5 127 -145 181 -177 23 -14 42 -28 42 -31 0&#xA;-3 -25 -23 -55 -43 -80 -53 -166 -144 -200 -212 -25 -49 -29 -71 -30 -134 0&#xA;-63 5 -85 29 -135 33 -67 122 -162 203 -217 l53 -35 -53 -33 c-79 -51 -169&#xA;-147 -203 -215 -24 -50 -29 -72 -29 -135 0 -105 32 -170 128 -264 454 -443&#xA;1797 -508 2451 -119 107 64 217 172 253 249 40 85 40 185 -1 269 -34 68 -124&#xA;164 -203 215 l-53 33 53 35 c81 55 170 150 203 217 41 85 41 185 1 267 -34 69&#xA;-119 158 -205 214 l-63 42 64 45 c83 60 159 143 194 215 25 50 28 68 28 152 0&#xA;85 -3 101 -30 154 -117 233 -503 421 -1005 491 -161 23 -531 28 -688 10z&#xA;m1316 -1268 c-3 -122 -6 -136 -30 -177 -85 -143 -299 -254 -607 -312 -101 -20&#xA;-149 -23 -376 -23 -228 0 -275 3 -378 23 -336 64 -576 201 -622 354 -16 55&#xA;-22 258 -7 258 5 0 55 -18 113 -39 521 -196 1299 -193 1794 7 55 22 104 40&#xA;109 41 4 1 7 -59 4 -132z m-1916 -682 c528 -184 1255 -190 1768 -14 63 22 123&#xA;42 133 46 15 5 17 -4 17 -99 0 -150 -16 -197 -94 -273 -305 -299 -1191 -357&#xA;-1686 -109 -122 61 -211 146 -234 224 -15 51 -24 260 -11 260 3 0 51 -16 107&#xA;-35z" />
        <path d="M1965 2704 c-128 -29 -215 -85 -231 -150 -14 -54 60 -126 171 -166&#xA;82 -29 272 -37 368 -14 163 38 254 125 213 203 -53 103 -328 170 -521 127z&#xA;m340 -53 c129 -58 140 -138 26 -195 -178 -91 -511 -34 -511 87 0 43 56 92 133&#xA;117 89 29 279 24 352 -9z" />
        <path d="M1115 2261 c-26 -6 -17 -9 60 -24 193 -38 255 -69 255 -128 0 -95&#xA;-183 -134 -409 -88 -57 11 -105 18 -108 15 -19 -19 181 -76 267 -76 121 0 255&#xA;42 305 96 66 71 -4 161 -150 192 -71 15 -185 22 -220 13z" />
    </g>
</svg>