<?xml version="1.0" encoding="UTF-8"?>
<svg version="1.1" xmlns="http://www.w3.org/2000/svg" width="256" height="256">
<path d="M0 0 C22.15983282 -1.68156736 45.35978276 13.66548191 61.55078125 27.484375 C62.88690834 28.67510739 64.21928819 29.87006565 65.546875 31.0703125 C67.34067145 32.68196718 67.34067145 32.68196718 70.0078125 34.15234375 C77.36463865 38.64818195 79.21536554 47.69435882 81.2578125 55.52734375 C82.4127906 60.62776897 83.42779106 65.75570885 84.45507812 70.88305664 C87.13079087 84.10120341 91.10206671 102.61517316 103.03125 110.734375 C107.80104615 113.40206731 112.75802555 114.9600193 118.2578125 114.52734375 C121.13496709 113.50792027 123.63568346 112.07211977 126.2578125 110.52734375 C127.91478629 109.83693801 129.57705019 109.15762962 131.2578125 108.52734375 C129.20480278 121.75785082 122.72497903 132.3080088 113.2578125 141.52734375 C112.63261719 142.18476563 112.00742188 142.8421875 111.36328125 143.51953125 C105.6796772 149.09544596 97.34807734 153.52734375 89.2578125 153.52734375 C89.2578125 155.50734375 89.2578125 157.48734375 89.2578125 159.52734375 C90.3096875 159.58921875 91.3615625 159.65109375 92.4453125 159.71484375 C97.06018775 160.69834175 98.40983074 161.80914534 101.2578125 165.52734375 C104.85075695 171.66877206 104.85995646 177.71159321 103.2578125 184.52734375 C100.24171412 192.7669059 96.79128208 200.09959846 89.6953125 205.46484375 C86.89395133 206.6859499 86.07647208 206.39141487 83.2578125 205.52734375 C82.88011719 206.31496094 82.50242188 207.10257813 82.11328125 207.9140625 C75.6376428 220.72885052 67.12749236 231.27346749 55.2578125 239.52734375 C54.09185547 240.33945312 54.09185547 240.33945312 52.90234375 241.16796875 C46.15579694 245.52626 38.90046399 248.15331063 31.2578125 250.52734375 C30.51329834 250.79063477 29.76878418 251.05392578 29.00170898 251.32519531 C20.89478225 253.93588741 13.03777952 253.98509052 4.60864258 253.91845703 C2.22352436 253.90253211 -0.15985855 253.91829144 -2.54492188 253.9375 C-22.28048873 253.96612089 -43.87405171 251.3416119 -59.7421875 238.52734375 C-60.95261719 237.57601562 -60.95261719 237.57601562 -62.1875 236.60546875 C-71.60784064 228.71197231 -79.28414251 218.44913521 -82.7421875 206.52734375 C-82.7421875 205.86734375 -82.7421875 205.20734375 -82.7421875 204.52734375 C-83.94875 204.92953125 -83.94875 204.92953125 -85.1796875 205.33984375 C-90.38271914 205.61368752 -93.69052496 203.69691002 -97.7421875 200.52734375 C-103.40667012 193.85036907 -105.09205839 186.52277808 -105.0546875 177.96484375 C-105.07080078 177.22298828 -105.08691406 176.48113281 -105.10351562 175.71679688 C-105.10843048 170.19741855 -103.88388051 167.0259856 -100.2421875 162.77734375 C-97.53391894 160.52045328 -94.92284305 160.40962809 -91.5546875 160.46484375 C-90.2965625 160.48546875 -89.0384375 160.50609375 -87.7421875 160.52734375 C-87.77699219 159.79515625 -87.81179687 159.06296875 -87.84765625 158.30859375 C-88.26132344 141.76190613 -85.67988309 125.11816643 -81.92480469 109.03466797 C-80.09828596 100.83628803 -82.04800429 93.96401788 -84.2421875 86.02734375 C-89.05770168 68.60894103 -89.00932912 52.78663817 -83.7421875 35.52734375 C-82.93394531 35.92566406 -82.93394531 35.92566406 -82.109375 36.33203125 C-79.49946566 36.80647341 -79.49946566 36.80647341 -77 34.53515625 C-75.9474752 33.58326655 -74.90373492 32.62160734 -73.8671875 31.65234375 C-52.72504588 12.88204199 -27.59687647 3.88891265 0 0 Z " fill="#060503" transform="translate(123.7421875,1.47265625)"/>
<path d="M0 0 C4.01213865 3.43588894 7.4806605 7.29628224 10.9375 11.28125 C13.41176976 14.04852539 16.01792253 16.60893086 18.6875 19.1875 C24.38234435 24.81035896 29.20702552 30.94730419 34.04589844 37.30712891 C36.06692356 39.90859493 38.18764358 42.42042098 40.3125 44.9375 C38.3125 46.9375 38.3125 46.9375 35.66796875 46.9921875 C34.09982422 46.90324219 34.09982422 46.90324219 32.5 46.8125 C27.61452442 46.7211884 27.61452442 46.7211884 23.1875 48.6875 C19.63487288 52.95065254 18.87636943 56.28281188 18.984375 61.74609375 C19.4721534 65.00375662 20.95654085 66.72012668 23.3125 68.9375 C25.63936453 70.10093227 27.15971413 70.13645988 29.75 70.1875 C30.53246094 70.21328125 31.31492188 70.2390625 32.12109375 70.265625 C34.82927067 69.86012257 35.64539638 69.06254258 37.3125 66.9375 C37.580625 66.256875 37.84875 65.57625 38.125 64.875 C39.88734972 61.9995873 42.1576787 61.76049686 45.3125 60.9375 C43.6625 60.6075 42.0125 60.2775 40.3125 59.9375 C40.6425 58.9475 40.9725 57.9575 41.3125 56.9375 C44.375 55.75 44.375 55.75 47.3125 54.9375 C44.6725 54.6075 42.0325 54.2775 39.3125 53.9375 C39.6425 52.6175 39.9725 51.2975 40.3125 49.9375 C44.42453729 48.5668209 46.50878943 49.31964655 50.33203125 51.16796875 C53.85596814 52.53723022 57.56644589 52.69116084 61.3125 52.9375 C67.31989101 70.21475654 63.24914799 89.22246727 55.625 105.1875 C50.11574459 116.04329019 42.6085483 123.51385924 32.3125 129.9375 C31.39726562 130.53433594 30.48203125 131.13117188 29.5390625 131.74609375 C19.41701817 138.05541093 8.07955145 141.96869373 -3.6875 143.9375 C-4.32945312 144.04835937 -4.97140625 144.15921875 -5.6328125 144.2734375 C-17.49106908 145.94170934 -30.02963356 145.61715176 -41.6875 142.9375 C-42.41259766 142.77088867 -43.13769531 142.60427734 -43.88476562 142.43261719 C-62.30174104 138.11543955 -76.78285393 131.82842518 -87.1875 115.3125 C-88.38303481 113.2036063 -89.55312131 111.07991011 -90.6875 108.9375 C-91.31591797 107.80054688 -91.31591797 107.80054688 -91.95703125 106.640625 C-98.30067906 94.00084734 -98.1546521 79.52768722 -98 65.75 C-97.99067327 64.01863677 -97.98147812 62.28727282 -97.97241211 60.5559082 C-97.72423757 30.01097514 -97.72423757 30.01097514 -94.6875 23.9375 C-93.6975 23.9375 -92.7075 23.9375 -91.6875 23.9375 C-91.6875 22.6175 -91.6875 21.2975 -91.6875 19.9375 C-92.3475 19.9375 -93.0075 19.9375 -93.6875 19.9375 C-92.62207944 9.63843458 -92.62207944 9.63843458 -90.6875 5.9375 C-79.62400019 -1.2963268 -65.38246266 -2.86477501 -52.5 -4.3125 C-51.42040512 -4.43807785 -51.42040512 -4.43807785 -50.31900024 -4.56619263 C-12.31354548 -8.95530581 -12.31354548 -8.95530581 0 0 Z " fill="#FBB983" transform="translate(141.6875,101.0625)"/>
<path d="M0 0 C6.16292149 6.17102963 10.26803647 13.63721676 14.125 21.375 C14.90399658 22.9074939 14.90399658 22.9074939 15.69873047 24.47094727 C16.70753164 26.45854277 17.71185099 28.44842158 18.7109375 30.44091797 C19.70288982 32.41016878 20.72095827 34.36628029 21.75 36.31640625 C25.22900393 42.94825749 28.02963987 49.83013088 30.875 56.75 C39.25340674 77.09398033 48.64091619 98.72957429 68 111 C68.57621094 111.37769531 69.15242187 111.75539063 69.74609375 112.14453125 C73.04395589 113.39623282 76.27530186 113.25172732 79.75 113.1875 C80.46285156 113.18105469 81.17570313 113.17460937 81.91015625 113.16796875 C86.68325869 113.09816104 91.29545452 112.78409091 96 112 C90.06288455 122.14257223 81.25648222 127.67531949 70.125 130.75 C64.63377437 132.00711077 59.60941522 132.58508801 54 132 C53.26265625 131.94972656 52.5253125 131.89945313 51.765625 131.84765625 C44.93056827 130.57517228 41.89801323 125.5352447 38.15649414 120.17211914 C37.21850568 118.79525984 36.28631526 117.41443335 35.35986328 116.02978516 C33.29105223 112.9417968 31.15242613 109.90508538 29 106.875 C28.59475098 106.30257568 28.18950195 105.73015137 27.77197266 105.14038086 C23.21572002 98.78087387 18.16232497 92.87110659 13 87 C12.21496094 86.1028125 11.42992187 85.205625 10.62109375 84.28125 C2.38125801 74.99531338 -6.24594512 66.6869704 -16 59 C-17.05600387 58.15236155 -18.1119931 57.30470486 -19.16796875 56.45703125 C-28.91373365 48.71073515 -38.68370539 41.86108614 -51 39 C-51 39.66 -51 40.32 -51 41 C-49.515 41.495 -49.515 41.495 -48 42 C-48 42.66 -48 43.32 -48 44 C-49.72265625 45.2265625 -49.72265625 45.2265625 -52.0625 46.625 C-59.83744297 51.67382303 -65.24664334 58.07580378 -68 67 C-68.84051536 70.98164132 -69.48106008 74.96455927 -70 79 C-74.455 79.495 -74.455 79.495 -79 80 C-80.01244632 54.32323637 -76.62660802 28.97795157 -59.75 8.625 C-47.2956367 -4.6168272 -15.77044834 -9.10767234 0 0 Z " fill="#FDFCA4" transform="translate(141,17)"/>
<path d="M0 0 C0.86445236 0.00202423 1.72890472 0.00404846 2.61955261 0.00613403 C3.52517441 0.00438171 4.4307962 0.00262939 5.36386108 0.00082397 C8.37293892 -0.00359597 11.3819585 -0.00065605 14.39103699 0.00271606 C16.47229524 0.00204307 18.55355342 0.00107308 20.6348114 -0.00018311 C25.00294236 -0.00166027 29.37105292 0.00049508 33.73918152 0.00515747 C39.35193252 0.01085477 44.96463571 0.00757586 50.57738495 0.00158501 C54.87690087 -0.0020201 59.17640537 -0.00088225 63.47592163 0.0017128 C65.5460816 0.00238221 67.61624259 0.00155316 69.68640137 -0.00076675 C72.57430285 -0.00329245 75.46212576 0.00054614 78.35002136 0.00613403 C79.21447372 0.0041098 80.07892609 0.00208557 80.96957397 0 C86.87052462 0.02126619 86.87052462 0.02126619 87.98478699 1.13552856 C87.41721307 11.54105034 83.67232466 20.04522987 75.98478699 27.13552856 C64.13323022 37.12199971 50.46495624 39.40241477 35.48332214 38.37918091 C24.65301534 37.32303022 14.86263956 34.65072683 5.98478699 28.13552856 C5.07728699 27.55802856 4.16978699 26.98052856 3.23478699 26.38552856 C-2.84935971 20.30138187 -6.72495459 12.36018019 -7.20271301 3.76052856 C-6.85279774 -1.13828532 -4.32248561 0.01557763 0 0 Z " fill="#0B0A09" transform="translate(84.01521301269531,183.86447143554688)"/>
<path d="M0 0 C0.66 0.33 1.32 0.66 2 1 C1.360625 1.721875 0.72125 2.44375 0.0625 3.1875 C-1.99408326 5.99193172 -2.81406979 7.56029107 -3 11 C-2.34 11.66 -1.68 12.32 -1 13 C-1.375 15.625 -1.375 15.625 -2 18 C-3.32 18 -4.64 18 -6 18 C-6.144375 18.928125 -6.28875 19.85625 -6.4375 20.8125 C-7 24 -7 24 -8 27 C-7.34 27 -6.68 27 -6 27 C-6.33 28.65 -6.66 30.3 -7 32 C-7.66 32 -8.32 32 -9 32 C-9.48283996 34.95777435 -9.96133765 37.91614929 -10.4375 40.875 C-10.57220703 41.69742188 -10.70691406 42.51984375 -10.84570312 43.3671875 C-14.3658285 65.3465069 -17.14170089 91.1906866 -3.39453125 110.22265625 C8.25538042 123.77107204 29.04311486 130.85700977 46.54931641 132.8190918 C69.03908042 134.47927462 90.31840091 133.44626671 111 124 C112.47533203 123.32710937 112.47533203 123.32710937 113.98046875 122.640625 C118.42119123 120.51537525 122.31140544 118.3197351 126 115 C126.66 115.33 127.32 115.66 128 116 C122.66344607 121.7844153 117.22127757 126.21241889 110.4375 130.1875 C109.13075317 130.9616626 109.13075317 130.9616626 107.79760742 131.75146484 C100.4268175 135.99363638 93.23623519 138.88814482 85 141 C84.14019531 141.22945312 83.28039062 141.45890625 82.39453125 141.6953125 C80.26804492 142.21503894 78.15853425 142.63884446 76 143 C75.35804688 143.11085937 74.71609375 143.22171875 74.0546875 143.3359375 C62.19643092 145.00420934 49.65786644 144.67965176 38 142 C37.27490234 141.83338867 36.54980469 141.66677734 35.80273438 141.49511719 C17.38575896 137.17793955 2.90464607 130.89092518 -7.5 114.375 C-8.69553481 112.2661063 -9.86562131 110.14241011 -11 108 C-11.62841797 106.86304688 -11.62841797 106.86304688 -12.26953125 105.703125 C-18.61317906 93.06334734 -18.4671521 78.59018722 -18.3125 64.8125 C-18.30317327 63.08113677 -18.29397812 61.34977282 -18.28491211 59.6184082 C-18.03673757 29.07347514 -18.03673757 29.07347514 -15 23 C-14.01 23 -13.02 23 -12 23 C-12 21.68 -12 20.36 -12 19 C-12.66 19 -13.32 19 -14 19 C-12.93457944 8.70093458 -12.93457944 8.70093458 -11 5 C-7.57798371 2.681621 -3.9026187 1.3008729 0 0 Z " fill="#C58076" transform="translate(62,102)"/>
<path d="M0 0 C3.12673572 0.8375185 5.99130194 1.81593173 9 3 C9.60569824 3.23734863 10.21139648 3.47469727 10.83544922 3.71923828 C23.51812464 8.96367051 28.84363064 16.37094412 34.10888672 28.83398438 C34.4029541 29.54876953 34.69702148 30.26355469 35 31 C35.43441406 32.01578125 35.86882812 33.0315625 36.31640625 34.078125 C37.34002984 36.69539003 38.19481158 39.30742039 39 42 C39.18336914 42.6098877 39.36673828 43.21977539 39.55566406 43.84814453 C41.26882678 49.56647818 42.94366564 55.29661601 44.58105469 61.03710938 C49.3722619 77.744486 54.93666921 94.95024009 69 106 C69 106.33 69 106.66 69 107 C61.54285011 106.96547616 57.54573347 104.81306543 52 100 C51.17628906 99.39414063 50.35257813 98.78828125 49.50390625 98.1640625 C44.79020019 94.09012622 42.05904749 88.36133728 39 83 C38.39414063 81.94296875 37.78828125 80.8859375 37.1640625 79.796875 C30.60826921 67.90239772 25.10344466 55.47475088 19.44335938 43.13769531 C17.71184565 39.37358597 15.95246432 35.62352513 14.1875 31.875 C11.2726482 25.65277271 8.48737877 19.37610731 5.75073242 13.07373047 C4.05183641 9.1993605 2.18558032 5.62914264 0 2 C0 1.34 0 0.68 0 0 Z " fill="#F9F9A2" transform="translate(150,19)"/>
<path d="M0 0 C17.86308787 1.21793781 32.15841418 14.75944306 45 26 C45.84820312 26.72445312 46.69640625 27.44890625 47.5703125 28.1953125 C52.50711066 32.4627143 56.85319467 36.96592776 61 42 C61.61359375 42.72574219 62.2271875 43.45148438 62.859375 44.19921875 C67.39336784 49.68535009 71.36421888 55.43866224 75.27514648 61.37207031 C77.92440027 65.39021609 80.59888601 69.38053185 83.375 73.3125 C83.98085937 74.17488281 84.58671875 75.03726563 85.2109375 75.92578125 C88.17010352 79.35660474 90.093659 79.90701685 94.6171875 80.37109375 C104.88644838 80.6643281 112.48184659 79.02175496 122 75 C123.99418892 74.31614695 125.9926034 73.64405228 128 73 C120.77868944 82.70363606 111.53092863 85.72801618 100 88 C96.5509693 88.42175647 93.44354707 88.42969738 90 88 C88.89978516 87.92265625 88.89978516 87.92265625 87.77734375 87.84375 C80.93421188 86.58857237 77.89865104 81.53615894 74.15649414 76.17211914 C73.21850568 74.79525984 72.28631526 73.41443335 71.35986328 72.02978516 C69.29105223 68.9417968 67.15242613 65.90508538 65 62.875 C64.59475098 62.30257568 64.18950195 61.73015137 63.77197266 61.14038086 C59.21572002 54.78087387 54.16232497 48.87110659 49 43 C48.21496094 42.1028125 47.42992187 41.205625 46.62109375 40.28125 C38.38272357 30.99696499 29.75882085 22.67865114 20 15 C19.45730469 14.56977539 18.91460937 14.13955078 18.35546875 13.69628906 C12.44511873 9.01896034 6.61776416 4.63311927 0 1 C0 0.67 0 0.34 0 0 Z " fill="#F0A778" transform="translate(105,61)"/>
<path d="M0 0 C6.93 0 13.86 0 21 0 C21 8.91 21 17.82 21 27 C12.5134693 26.58399359 4.99192789 25.92791828 -3 23 C-3.48658283 15.05248041 -1.6581446 7.73800813 0 0 Z " fill="#FBFBFB" transform="translate(104,189)"/>
<path d="M0 0 C0.50534727 2.72827365 1.00443845 5.45744694 1.5 8.1875 C1.64308594 8.95642578 1.78617188 9.72535156 1.93359375 10.51757812 C2.63238715 14.39421773 3.19039017 18.041471 3 22 C-5.01635937 26.90391284 -9.95600847 27.22738527 -20 28 C-20 19.09 -20 10.18 -20 1 C-5.80357143 -0.07142857 -5.80357143 -0.07142857 0 0 Z " fill="#F7F7F7" transform="translate(149,188)"/>
<path d="M0 0 C0.46148437 0.433125 0.92296875 0.86625 1.3984375 1.3125 C6.38698889 5.5715004 9.26344521 6.32812832 15.7265625 5.890625 C18 6 18 6 21.0625 8.3125 C24.13258241 12.57100141 24.35010264 15.83598602 24 21 C22.27759317 25.62330253 20.27360523 28.47468782 16 31 C11.38030203 31.75595058 9.62635292 31.43362894 5.75 28.75 C3 26 3 26 1.4375 23.875 C-0.36515297 21.52371352 -2.45667869 20.47244918 -5 19 C-5.33 18.34 -5.66 17.68 -6 17 C-3.69 17.33 -1.38 17.66 1 18 C1 17.01 1 16.02 1 15 C0.21625 14.731875 -0.5675 14.46375 -1.375 14.1875 C-4 13 -4 13 -6 10 C-3.03 10.33 -0.06 10.66 3 11 C2.34 9.68 1.68 8.36 1 7 C0.61250787 4.67504723 0.27017161 2.34148732 0 0 Z " fill="#0A0706" transform="translate(65,141)"/>
<path d="M0 0 C9.70409069 5.74323734 13.88419773 14.24499929 16.625 24.875 C17.89124989 29.97149074 19.02262523 35.09503818 20.13671875 40.2265625 C23.65204767 56.17563052 27.69922605 74.23490219 41 85 C43.649044 86.67052858 46.07713539 87.83085415 49 89 C49 89.33 49 89.66 49 90 C41.08983897 89.57624137 35.97495149 87.18272588 30.5390625 81.3671875 C27.55908674 77.66589315 25.55841775 73.60480574 23.5625 69.3125 C23.17344482 68.48089355 22.78438965 67.64928711 22.38354492 66.79248047 C17.64693326 56.38662957 14.5662489 45.57408036 11.4765625 34.59375 C10.96358485 32.77082118 10.45056427 30.94790444 9.9375 29.125 C9.69008057 28.24142822 9.44266113 27.35785645 9.18774414 26.44750977 C7.46327057 20.37679273 5.46443025 14.5378541 3.078125 8.69140625 C1.93111594 5.82803942 0.95056251 2.93378157 0 0 Z " fill="#F2F29E" transform="translate(182,36)"/>
<path d="M0 0 C1.31291016 -0.05607422 1.31291016 -0.05607422 2.65234375 -0.11328125 C5.0625 0.3125 5.0625 0.3125 6.87890625 2.33203125 C7.46478516 3.31236328 7.46478516 3.31236328 8.0625 4.3125 C7.32386719 4.38726562 6.58523437 4.46203125 5.82421875 4.5390625 C-1.95863095 5.54776729 -8.55362069 7.60543702 -14.9375 12.3125 C-15.2675 13.3025 -15.5975 14.2925 -15.9375 15.3125 C-15.46441406 14.98636719 -14.99132812 14.66023438 -14.50390625 14.32421875 C-6.80726391 9.23813346 0.64260275 6.44159928 9.98828125 6.62109375 C17.14314554 8.23025637 22.05013828 14.30013828 27.0625 19.3125 C10.8925 19.3125 -5.2775 19.3125 -21.9375 19.3125 C-20.96776641 13.49409848 -20.61498752 11.61785124 -16.9375 7.3125 C-11.58673756 3.60413637 -6.58631555 0.18375917 0 0 Z " fill="#E9A173" transform="translate(104.9375,73.6875)"/>
<path d="M0 0 C0.66 0.33 1.32 0.66 2 1 C1.32904297 2.20269531 1.32904297 2.20269531 0.64453125 3.4296875 C-6.66253338 17.17133144 -10.84718575 31.62775436 -11.31640625 47.24609375 C-11.33718735 47.90207047 -11.35796844 48.55804718 -11.37937927 49.23390198 C-11.44405938 51.30167546 -11.50337466 53.36956101 -11.5625 55.4375 C-11.60576307 56.85092242 -11.64937965 58.26433407 -11.69335938 59.67773438 C-11.79965516 63.11837471 -11.90114472 66.55913692 -12 70 C-12.66 70 -13.32 70 -14 70 C-16.70166244 59.09686228 -18.3890852 48.63611613 -18.375 37.375 C-18.37628906 36.39337891 -18.37757812 35.41175781 -18.37890625 34.40039062 C-18.23583409 24.82105904 -17.35339031 14.63250207 -11 7 C-7.54836791 4.25166289 -4.01395412 1.84861655 0 0 Z " fill="#F2EF9C" transform="translate(71,28)"/>
<path d="M0 0 C-0.01571045 1.02134033 -0.0314209 2.04268066 -0.04760742 3.0949707 C-0.65331898 29.71499256 -0.65331898 29.71499256 3 56 C1.02 56.495 1.02 56.495 -1 57 C-1.6102043 55.54418264 -2.21271846 54.08514232 -2.8125 52.625 C-3.14894531 51.81289062 -3.48539063 51.00078125 -3.83203125 50.1640625 C-4.21746094 49.11992188 -4.60289063 48.07578125 -5 47 C-5.26167969 46.31365479 -5.52335937 45.62730957 -5.79296875 44.92016602 C-8.34682032 37.519317 -8.44837568 30.46124538 -8.375 22.6875 C-8.38660156 21.43904297 -8.39820313 20.19058594 -8.41015625 18.90429688 C-8.40628906 17.70224609 -8.40242188 16.50019531 -8.3984375 15.26171875 C-8.39505371 14.17850342 -8.39166992 13.09528809 -8.38818359 11.97924805 C-7.91787877 8.36973246 -4.55818572 0 0 0 Z " fill="#E0A072" transform="translate(52,43)"/>
<path d="M0 0 C5.78683525 2.92286717 9.59414127 6.36229629 13.875 11.1875 C15.10665727 12.54555607 16.3397264 13.90233305 17.57421875 15.2578125 C18.16380371 15.90782227 18.75338867 16.55783203 19.36083984 17.22753906 C21.39186828 19.42373603 23.52446005 21.49689428 25.6875 23.5625 C30.41963127 28.21502532 34.39377211 33.41069936 38.421875 38.66796875 C40.86304206 41.8535986 43.41205978 44.9326392 46 48 C44 50 44 50 41.828125 50.36328125 C38.92227464 50.3060448 36.72467687 50.03716249 34 49 C32.10910911 46.67126924 31.05432138 44.2728834 29.80078125 41.546875 C27.55945638 37.13229152 24.80340258 33.2931047 21.875 29.3125 C21.31659424 28.55074463 20.75818848 27.78898926 20.18286133 27.00415039 C19.03630673 25.44672393 17.88678772 23.89147566 16.734375 22.33837891 C15.01245608 20.01679397 13.30252415 17.68673903 11.59375 15.35546875 C10.52163461 13.90305402 9.4487501 12.45120663 8.375 11 C7.8785498 10.32364502 7.38209961 9.64729004 6.87060547 8.95043945 C4.72884833 6.08202796 3.00549967 4.00366644 0 2 C0 1.34 0 0.68 0 0 Z " fill="#C58076" transform="translate(136,98)"/>
<path d="M0 0 C0 0.66 0 1.32 0 2 C-1.72265625 3.2265625 -1.72265625 3.2265625 -4.0625 4.625 C-11.83744297 9.67382303 -17.24664334 16.07580378 -20 25 C-20.84051536 28.98164132 -21.48106008 32.96455927 -22 37 C-26.455 37.495 -26.455 37.495 -31 38 C-31 31.4 -31 24.8 -31 18 C-30.67 18 -30.34 18 -30 18 C-29.67 20.97 -29.34 23.94 -29 27 C-28.61070313 26.17757812 -28.22140625 25.35515625 -27.8203125 24.5078125 C-22.25591433 13.40465855 -15.52065542 5.0801835 -4.03125 -0.35546875 C-2 -1 -2 -1 0 0 Z " fill="#E8A475" transform="translate(93,59)"/>
<path d="M0 0 C3.0625 0.25 3.0625 0.25 6.0625 2.25 C6.49487305 4.86376953 6.49487305 4.86376953 6.57421875 8.1328125 C6.60966797 9.29941406 6.64511719 10.46601563 6.68164062 11.66796875 C6.70419922 12.89128906 6.72675781 14.11460937 6.75 15.375 C6.80124023 17.22158203 6.80124023 17.22158203 6.85351562 19.10546875 C6.93621564 22.1535551 7.00529427 25.20134571 7.0625 28.25 C2.71906755 27.62431291 0.83080507 26.56607342 -1.8671875 22.96875 C-5.66869909 16.86413284 -5.65722224 9.22495525 -4.9375 2.25 C-2.9375 0.25 -2.9375 0.25 0 0 Z " fill="#F6B681" transform="translate(31.9375,169.75)"/>
<path d="M0 0 C2.625 0.25 2.625 0.25 4.26171875 1.34765625 C7.36521394 5.67832145 6.13467308 12.19247486 5.625 17.25 C4.18665366 22.08136846 1.64524135 26.13755508 -2.375 29.25 C-3.365 29.25 -4.355 29.25 -5.375 29.25 C-5.2203125 28.31929687 -5.065625 27.38859375 -4.90625 26.4296875 C-4.054616 20.47724564 -3.9867539 14.46271879 -3.76953125 8.4609375 C-3.73214844 7.54828125 -3.69476563 6.635625 -3.65625 5.6953125 C-3.62595703 4.86531738 -3.59566406 4.03532227 -3.56445312 3.18017578 C-3.28227042 0.30525766 -2.88920392 0.30412673 0 0 Z " fill="#F7B681" transform="translate(213.375,168.75)"/>
<path d="M0 0 C3.3 0 6.6 0 10 0 C9.67 7.26 9.34 14.52 9 22 C0.55712841 18.62285137 0.55712841 18.62285137 -2 14 C-2.34148949 9.12157878 -1.53980928 4.61942785 0 0 Z " fill="#F3F3F3" transform="translate(89,188)"/>
<path d="M0 0 C2.8125 2.5625 2.8125 2.5625 5 5 C3.71416016 5.32871094 3.71416016 5.32871094 2.40234375 5.6640625 C-6.41959439 8.11073306 -12.56085536 10.58507954 -17.3125 18.625 C-17.869375 19.73875 -18.42625 20.8525 -19 22 C-19.4125 22.804375 -19.825 23.60875 -20.25 24.4375 C-20.4975 24.953125 -20.745 25.46875 -21 26 C-22 25 -22 25 -22.25 21.9375 C-21.84573464 15.57032054 -19.94820238 10.20233535 -15.5859375 5.390625 C-10.92444245 1.3032057 -6.23264517 -2.05382435 0 0 Z " fill="#E9A173" transform="translate(99,66)"/>
<path d="M0 0 C4.95 0 9.9 0 15 0 C13.86644407 6.80133556 13.86644407 6.80133556 11.1875 10.6875 C10.68605469 11.43386719 10.18460938 12.18023437 9.66796875 12.94921875 C7.9608798 15.0480986 6.2261775 16.47885919 4 18 C2.1538447 12.06592939 1.05853055 6.12435531 0 0 Z " fill="#F2F2F2" transform="translate(152,188)"/>
<path d="M0 0 C0.33 0 0.66 0 1 0 C1.68826474 11.81521135 1.68826474 11.81521135 -0.75 15.625 C-3.55371476 18.58447669 -5.52676212 19.8086126 -9.5859375 20.3359375 C-15.57882342 20.41987148 -19.33404282 20.18739747 -24 16 C-26.4294516 12.3558226 -26.16179575 10.28758728 -26 6 C-22.98385187 7.1170919 -21.35491331 8.6125776 -19.375 11.0625 C-17.32880603 14.00824713 -17.32880603 14.00824713 -15 15 C-10.96009652 15.38112297 -8.70678033 15.4240682 -5.1875 13.3125 C-1.42477257 9.33475957 -0.74245301 5.32091327 0 0 Z " fill="#C68176" transform="translate(89,156)"/>
<path d="M0 0 C1.3303125 0.495 1.3303125 0.495 2.6875 1 C6.77261094 2.23324104 10.76117493 2.64205477 15 3 C15.33 4.65 15.66 6.3 16 8 C13.19252545 8.7795458 10.57970192 9.1710149 7.671875 9.31640625 C6.87265625 9.35830078 6.0734375 9.40019531 5.25 9.44335938 C4.425 9.48267578 3.6 9.52199219 2.75 9.5625 C1.48929688 9.62727539 1.48929688 9.62727539 0.203125 9.69335938 C-1.86440671 9.79908543 -3.93218281 9.90001295 -6 10 C-5.67 9.01 -5.34 8.02 -5 7 C-1.9375 5.8125 -1.9375 5.8125 1 5 C-1.64 4.67 -4.28 4.34 -7 4 C-6.625 2.0625 -6.625 2.0625 -6 0 C-3.41956046 -1.29021977 -2.72685923 -0.83320699 0 0 Z " fill="#C37F75" transform="translate(188,151)"/>
<path d="M0 0 C1.71497098 2.57245646 3.00799638 5.09476462 4.30834961 7.88720703 C9.01989539 17.87029349 13.83412897 23.54128464 24 28 C24 28.33 24 28.66 24 29 C16.02145468 28.57257793 11.08189986 26.00852129 5.375 20.4375 C1.9315736 15.95987045 -3 8.72194564 -3 3 C-1.5 1.375 -1.5 1.375 0 0 Z " fill="#EAEA98" transform="translate(207,97)"/>
<path d="M0 0 C-0.06967431 3.48371543 -0.18866548 6.07858492 -2.5546875 8.765625 C-7.03206994 12.59276518 -9.85377545 14.37008145 -15.9609375 14.28125 C-19.24184548 13.82871097 -20.83629145 12.42597626 -23 10 C-23.8125 7.25 -23.8125 7.25 -24 5 C-23.360625 5.495 -22.72125 5.99 -22.0625 6.5 C-18.090166 8.44563298 -14.36328647 8.83343674 -10 8 C-7.99809273 6.37658545 -7.10556955 5.23929098 -6.0625 2.875 C-5 1 -5 1 -2.9375 0.25 C-1 0 -1 0 0 0 Z " fill="#BB7A6F" transform="translate(186,163)"/>
<path d="M0 0 C-0.66 10.56 -1.32 21.12 -2 32 C-6.86907353 27.13092647 -7.27748519 19.31229224 -7.5625 12.75 C-7.48316778 8.1983136 -7.31708797 5.42652914 -4.0625 2.125 C-1 0 -1 0 0 0 Z " fill="#F7F39F" transform="translate(52,43)"/>
<path d="M0 0 C1.86328125 0.09375 1.86328125 0.09375 4 1 C5.16796875 3.78125 5.16796875 3.78125 6.1875 7.5 C8.04713453 13.69878178 10.43997288 19.38918458 13.4375 25.125 C13.79674561 25.83462891 14.15599121 26.54425781 14.52612305 27.27539062 C17.0519514 31.9925229 19.72414488 34.78869753 24 38 C26 40 26 40 26 43 C20.89544921 42.12368227 19.00765284 38.95270087 16 35 C15.51402344 34.37222656 15.02804688 33.74445313 14.52734375 33.09765625 C7.56139708 23.41963434 2.90532252 11.51061114 0 0 Z " fill="#1E1E14" transform="translate(195,84)"/>
<path d="M0 0 C0.33 0 0.66 0 1 0 C1.09796875 0.90363281 1.1959375 1.80726563 1.296875 2.73828125 C1.44640625 3.91777344 1.5959375 5.09726563 1.75 6.3125 C1.88921875 7.48425781 2.0284375 8.65601563 2.171875 9.86328125 C2.72827712 13.05171719 2.72827712 13.05171719 4.90625 14.875 C7.26682473 16.14336851 9.35540068 16.63269454 12 17 C12 19.97 12 22.94 12 26 C8.24713846 25.78555077 7.05412451 25.0528658 4.3125 22.375 C-0.76083576 15.61055233 -0.23882184 8.08013879 0 0 Z " fill="#C58275" transform="translate(27,172)"/>
<path d="M0 0 C0.33 0 0.66 0 1 0 C1 5.94 1 11.88 1 18 C6.63106761 15.5797509 6.63106761 15.5797509 9 13 C8.71015434 18.79691323 6.07476897 23.0015733 2 27 C-0.19921875 27.73046875 -0.19921875 27.73046875 -2 28 C-1.84660156 27.07058594 -1.69320312 26.14117187 -1.53515625 25.18359375 C-0.81806202 20.16393411 -0.64854502 15.12412066 -0.4375 10.0625 C-0.39431641 9.09248047 -0.35113281 8.12246094 -0.30664062 7.12304688 C-0.20137907 4.74881399 -0.09924293 2.37449079 0 0 Z " fill="#B77A6B" transform="translate(210,170)"/>
<path d="M0 0 C0.33 0 0.66 0 1 0 C1.68826474 11.81521135 1.68826474 11.81521135 -0.75 15.625 C-3.65587111 18.69230839 -5.54640457 19.89849194 -9.796875 20.1953125 C-10.77140625 20.17210937 -11.7459375 20.14890625 -12.75 20.125 C-13.73484375 20.10695312 -14.7196875 20.08890625 -15.734375 20.0703125 C-16.48203125 20.04710937 -17.2296875 20.02390625 -18 20 C-18.33 19.34 -18.66 18.68 -19 18 C-15.37 17.67 -11.74 17.34 -8 17 C-8 16.34 -8 15.68 -8 15 C-7.21625 14.401875 -6.4325 13.80375 -5.625 13.1875 C-1.2537378 9.5447815 -0.7632415 5.46989742 0 0 Z " fill="#7C5249" transform="translate(89,156)"/>
<path d="M0 0 C0.33 0.66 0.66 1.32 1 2 C0.10796875 2.32613281 -0.7840625 2.65226562 -1.703125 2.98828125 C-2.87359375 3.42527344 -4.0440625 3.86226563 -5.25 4.3125 C-6.41015625 4.74175781 -7.5703125 5.17101562 -8.765625 5.61328125 C-11.5941299 6.82598565 -13.66536544 8.02942974 -16 10 C-16.66 9.67 -17.32 9.34 -18 9 C-14.61837156 3.62013657 -6.65897236 -2.88357285 0 0 Z " fill="#1F150F" transform="translate(105,80)"/>
<path d="M0 0 C2.5625 -0.25 2.5625 -0.25 5 0 C6 1 6 1 6.1875 3.4375 C6 6 6 6 4 8 C1.375 7.625 1.375 7.625 -1 7 C-1.625 5.1875 -1.625 5.1875 -2 3 C-1.34 2.01 -0.68 1.02 0 0 Z " fill="#F0F0F0" transform="translate(76,151)"/>
<path d="M0 0 C0.33 0.99 0.66 1.98 1 3 C-0.546875 5.26953125 -0.546875 5.26953125 -2.75 7.8125 C-5.784466 11.43582217 -8.17050913 14.65495919 -10 19 C-10.33 19 -10.66 19 -11 19 C-10.84699876 11.96194298 -7.44254641 7.30583599 -3 2 C-2.01 1.34 -1.02 0.68 0 0 Z " fill="#252518" transform="translate(82,22)"/>
<path d="M0 0 C0.33 0.99 0.66 1.98 1 3 C0.54625 3.7425 0.0925 4.485 -0.375 5.25 C-2.30623946 8.51825139 -2.63274633 11.25401257 -3 15 C-4.65 15 -6.3 15 -8 15 C-7.41712333 11.30626473 -6.40083644 8.50118255 -4.5625 5.25 C-4.13066406 4.47140625 -3.69882813 3.6928125 -3.25390625 2.890625 C-2 1 -2 1 0 0 Z " fill="#13130C" transform="translate(74,28)"/>
<path d="M0 0 C2.625 0.375 2.625 0.375 5 1 C5.625 2.875 5.625 2.875 6 5 C5.34 5.66 4.68 6.32 4 7 C1.375 6.625 1.375 6.625 -1 6 C-1.625 4.125 -1.625 4.125 -2 2 C-1.34 1.34 -0.68 0.68 0 0 Z " fill="#EDEDED" transform="translate(169,152)"/>
<path d="M0 0 C0.99 0.33 1.98 0.66 3 1 C2.67 2.32 2.34 3.64 2 5 C-0.97 4.67 -3.94 4.34 -7 4 C-6.67 2.68 -6.34 1.36 -6 0 C-3.46924326 -1.26537837 -2.64724917 -0.80219672 0 0 Z " fill="#BA796F" transform="translate(188,151)"/>
<path d="M0 0 C1.45212891 0.01160156 1.45212891 0.01160156 2.93359375 0.0234375 C3.90425781 0.01570313 4.87492188 0.00796875 5.875 0 C6.69871094 0.13148437 7.52242187 0.26296875 8.37109375 0.3984375 C9.03109375 1.3884375 9.69109375 2.3784375 10.37109375 3.3984375 C5.09109375 3.3984375 -0.18890625 3.3984375 -5.62890625 3.3984375 C-2.62890625 0.3984375 -2.62890625 0.3984375 0 0 Z " fill="#27271A" transform="translate(218.62890625,127.6015625)"/>
<path d="M0 0 C1.2065625 0.495 1.2065625 0.495 2.4375 1 C6.73804795 2.20717135 10.56966181 2.17721353 15 2 C12.55222404 4.88242777 12.14458455 4.98623004 8.0625 5.375 C5.23873458 5.27099391 4.03734478 5.02053963 1.5 3.625 C0 2 0 2 0 0 Z " fill="#17100D" transform="translate(164,172)"/>
<path d="M0 0 C1.65 0.33 3.3 0.66 5 1 C4.67 2.65 4.34 4.3 4 6 C2.35 5.67 0.7 5.34 -1 5 C-0.67 3.35 -0.34 1.7 0 0 Z " fill="#251B13" transform="translate(56,114)"/>
<path d="M0 0 C1.65 0 3.3 0 5 0 C4.67 2.97 4.34 5.94 4 9 C3.34 9 2.68 9 2 9 C0.50178941 5.62902617 0 3.79557881 0 0 Z " fill="#DDDDDD" transform="translate(81,188)"/>
<path d="M0 0 C0.33 0.99 0.66 1.98 1 3 C-3.625 7.875 -3.625 7.875 -7 9 C-5.64978174 4.58110387 -3.73884332 2.65654657 0 0 Z " fill="#595939" transform="translate(82,22)"/>
<path d="M0 0 C0.33 0 0.66 0 1 0 C1.33 3.3 1.66 6.6 2 10 C1.34 10 0.68 10 0 10 C-0.33 10.66 -0.66 11.32 -1 12 C-1.33 9.36 -1.66 6.72 -2 4 C-1.34 4 -0.68 4 0 4 C0 2.68 0 1.36 0 0 Z " fill="#2A2217" transform="translate(54,82)"/>
<path d="M0 0 C2.97 0.99 5.94 1.98 9 3 C9 3.33 9 3.66 9 4 C2.47692308 4.36923077 2.47692308 4.36923077 0.0625 2.5 C-0.4634375 1.7575 -0.4634375 1.7575 -1 1 C-0.67 0.67 -0.34 0.34 0 0 Z " fill="#0C0C08" transform="translate(209,126)"/>
<path d="M0 0 C0.33 0 0.66 0 1 0 C1 2.97 1 5.94 1 9 C0.01 8.67 -0.98 8.34 -2 8 C-1.125 1.125 -1.125 1.125 0 0 Z " fill="#18180F" transform="translate(53,45)"/>
</svg>
